<svg xmlns="http://www.w3.org/2000/svg" width="92.705" height="92.705" viewBox="0 0 92.705 92.705">
  <path id="Path_99" data-name="Path 99" d="M92.7,84.542,73.464,65.3a39.92,39.92,0,0,0,8.163-24.488A40.562,40.562,0,0,0,40.813,0,40.562,40.562,0,0,0,0,40.813,40.562,40.562,0,0,0,40.813,81.627,39.92,39.92,0,0,0,65.3,73.464L84.542,92.7ZM11.661,40.813A28.869,28.869,0,0,1,40.813,11.661,28.869,28.869,0,0,1,69.966,40.813,28.869,28.869,0,0,1,40.813,69.966,28.869,28.869,0,0,1,11.661,40.813Z" transform="translate(0)" fill="#fff"/>
</svg>
