<svg xmlns="http://www.w3.org/2000/svg" width="118.02" height="113.822" viewBox="0 0 118.02 113.822">
  <g id="Group_24" data-name="Group 24" transform="translate(-435.539 -946.319)">
    <path id="Path_202" data-name="Path 202" d="M86.637,108.131a4.949,4.949,0,0,1-2.252-.541L55.438,92.823,26.491,107.59a4.956,4.956,0,0,1-7.151-5.167l4.98-32.407L1.425,46.759A4.956,4.956,0,0,1,4.158,38.39l32.031-5.227L51.021,4.018a4.956,4.956,0,0,1,8.834,0L74.687,33.163l32.031,5.227a4.956,4.956,0,0,1,2.734,8.369L95.115,61.321l-8.558,8.694,4.979,32.407a4.956,4.956,0,0,1-4.9,5.709Z" transform="translate(439.111 948.51)" fill="none" stroke="#fff" stroke-width="7"/>
  </g>
</svg>
