<svg xmlns="http://www.w3.org/2000/svg" xmlns:xlink="http://www.w3.org/1999/xlink" width="247" height="247" viewBox="0 0 247 247">
  <defs>
    <clipPath id="clip-path">
      <rect width="161" height="161" fill="none"/>
    </clipPath>
  </defs>
  <g id="Group_26" data-name="Group 26" transform="translate(-125 -210)">
    <g id="Group_25" data-name="Group 25">
      <g id="Profile" transform="translate(166 242)" clip-path="url(#clip-path)">
        <path id="Union_1" data-name="Union 1" d="M0,162V141.752c0-22.28,36.45-40.5,81-40.5s81,18.225,81,40.5V162ZM40.5,40.5A40.5,40.5,0,1,1,81,81,40.5,40.5,0,0,1,40.5,40.5Z" fill="#050087"/>
      </g>
      <g id="Path_205" data-name="Path 205" transform="translate(125 210)" fill="none">
        <path d="M123.5,0A123.5,123.5,0,0,1,247,123.5a125.325,125.325,0,0,1-4.195,32.033C229.205,207.8,180.93,247,123.5,247a123.5,123.5,0,0,1,0-247Z" stroke="none"/>
        <path d="M 123.5 4.000015258789063 C 115.3894653320313 4.000015258789063 107.2852172851563 4.816864013671875 99.412353515625 6.427902221679688 C 91.74160766601563 7.997543334960938 84.19645690917969 10.33969116210938 76.98643493652344 13.38926696777344 C 69.90643310546875 16.38386535644531 63.07746887207031 20.09054565429688 56.689208984375 24.4063720703125 C 50.36061096191406 28.68186950683594 44.40936279296875 33.59214782714844 39.00074768066406 39.00076293945313 C 33.59214782714844 44.40936279296875 28.68185424804688 50.36065673828125 24.40635681152344 56.68922424316406 C 20.09053039550781 63.07746887207031 16.38385009765625 69.90647888183594 13.38925170898438 76.98648071289063 C 10.33967590332031 84.19647216796875 7.997543334960938 91.74165344238281 6.427886962890625 99.41236877441406 C 4.816864013671875 107.2852630615234 4 115.3895111083984 4 123.5000457763672 C 4 131.6105804443359 4.816864013671875 139.7148742675781 6.427886962890625 147.5877227783203 C 7.997543334960938 155.2584381103516 10.33967590332031 162.8036193847656 13.38925170898438 170.0136566162109 C 16.38385009765625 177.0936584472656 20.09053039550781 183.9226226806641 24.40635681152344 190.3108673095703 C 28.68185424804688 196.6394653320313 33.59214782714844 202.5907287597656 39.00074768066406 207.9993286132813 C 44.40936279296875 213.4079437255859 50.36061096191406 218.3182220458984 56.689208984375 222.5937194824219 C 63.07746887207031 226.9095458984375 69.90643310546875 230.6162261962891 76.98643493652344 233.6108245849609 C 84.19645690917969 236.660400390625 91.74160766601563 239.0025482177734 99.412353515625 240.5721893310547 C 107.2852172851563 242.1832275390625 115.3894653320313 243.0000762939453 123.5 243.0000762939453 C 137.0845642089844 243.0000762939453 150.4194641113281 240.7402954101563 163.1342163085938 236.2835083007813 C 175.4026184082031 231.9831848144531 186.8402099609375 225.73486328125 197.1293182373047 217.7121124267578 C 207.3023529052734 209.7798767089844 216.0643920898438 200.3414764404297 223.1720733642578 189.6590881347656 C 230.3860015869141 178.8169708251953 235.6890411376953 166.99658203125 238.9342498779297 154.5249328613281 C 241.6700744628906 144.0250549316406 243 133.8766784667969 243 123.5000457763672 C 243 115.3895111083984 242.1831359863281 107.2852630615234 240.5721130371094 99.41236877441406 C 239.0024719238281 91.74165344238281 236.6603240966797 84.19647216796875 233.6107482910156 76.98648071289063 C 230.6161499023438 69.90647888183594 226.9094696044922 63.07746887207031 222.5936431884766 56.68922424316406 C 218.3181457519531 50.36065673828125 213.4078979492188 44.40936279296875 207.9992523193359 39.00076293945313 C 202.5906372070313 33.59214782714844 196.6393890380859 28.68186950683594 190.310791015625 24.4063720703125 C 183.9225311279297 20.09054565429688 177.0935668945313 16.38386535644531 170.0135803222656 13.38926696777344 C 162.8035736083984 10.33969116210938 155.2583923339844 7.997543334960938 147.587646484375 6.427902221679688 C 139.7147827148438 4.816864013671875 131.6105346679688 4.000015258789063 123.5 4.000015258789063 M 123.5 1.52587890625e-05 C 191.7071838378906 1.52587890625e-05 247 55.29286193847656 247 123.5000457763672 C 247 134.2767944335938 245.6196441650391 144.7311553955078 242.8049926757813 155.5335083007813 C 229.2050323486328 207.7994689941406 180.930419921875 247.0000762939453 123.5 247.0000762939453 C 55.29286193847656 247.0000762939453 0 191.7072601318359 0 123.5000457763672 C 0 55.29286193847656 55.29286193847656 1.52587890625e-05 123.5 1.52587890625e-05 Z" stroke="none" fill="#050087"/>
      </g>
    </g>
  </g>
</svg>
