<svg xmlns="http://www.w3.org/2000/svg" width="112.774" height="112.774" viewBox="0 0 112.774 112.774">
  <g id="Group_23" data-name="Group 23" transform="translate(-1685.667 -40)">
    <g id="Profile" transform="translate(1704 55)">
      <path id="Union_1" data-name="Union 1" d="M0,74V64.751c0-10.177,16.65-18.5,37-18.5s37,8.325,37,18.5V74ZM18.5,18.5A18.5,18.5,0,1,1,37,37,18.5,18.5,0,0,1,18.5,18.5Z" fill="#050087"/>
    </g>
    <g id="Path_205" data-name="Path 205" transform="translate(1685.667 40)" fill="none">
      <path d="M56.387,0a56.387,56.387,0,0,1,56.387,56.387,57.22,57.22,0,0,1-1.915,14.626A56.393,56.393,0,1,1,56.387,0Z" stroke="none"/>
      <path d="M 56.386962890625 3.999992370605469 C 49.3129997253418 3.999992370605469 42.45278167724609 5.384536743164063 35.99681854248047 8.11517333984375 C 29.75908660888672 10.75351715087891 24.15619659423828 14.53135681152344 19.34378051757813 19.34377288818359 C 14.53136444091797 24.15618896484375 10.75352478027344 29.75907897949219 8.115180969238281 35.99681091308594 C 5.384544372558594 42.45277404785156 4 49.31299209594727 4 56.38695526123047 C 4 63.46091842651367 5.384544372558594 70.32113647460938 8.115180969238281 76.777099609375 C 10.75352478027344 83.01480865478516 14.53136444091797 88.61769866943359 19.34378051757813 93.43011474609375 C 24.15619659423828 98.24253845214844 29.75908660888672 102.020393371582 35.99681854248047 104.6587219238281 C 42.45278167724609 107.3893585205078 49.3129997253418 108.7739028930664 56.386962890625 108.7739028930664 C 62.3438720703125 108.7739028930664 68.1903076171875 107.783317565918 73.76390838623047 105.8296432495117 C 79.14208984375 103.9444808959961 84.15643310546875 101.2051010131836 88.66763305664063 97.68757629394531 C 93.12798309326172 94.20970153808594 96.96932983398438 90.07197570800781 100.0849609375 85.38933563232422 C 103.2445831298828 80.64064788818359 105.5669250488281 75.4647216796875 106.9878158569336 70.00404357910156 C 108.1896896362305 65.39142608642578 108.77392578125 60.9372444152832 108.77392578125 56.38695526123047 C 108.77392578125 49.31299209594727 107.3893814086914 42.45277404785156 104.6587448120117 35.99681091308594 C 102.0204010009766 29.75907897949219 98.24256134033203 24.15618896484375 93.43014526367188 19.34377288818359 C 88.61772918701172 14.53135681152344 83.01483154296875 10.75351715087891 76.77710723876953 8.11517333984375 C 70.32114410400391 5.384536743164063 63.4609260559082 3.999992370605469 56.386962890625 3.999992370605469 M 56.386962890625 -7.62939453125e-06 C 87.52861785888672 -7.62939453125e-06 112.77392578125 25.24530029296875 112.77392578125 56.38695526123047 C 112.77392578125 61.30733871459961 112.1436920166016 66.08052062988281 110.8585815429688 71.01261138916016 C 104.6492004394531 94.87590026855469 82.60823822021484 112.7739028930664 56.386962890625 112.7739028930664 C 25.24530792236328 112.7739028930664 0 87.52861022949219 0 56.38695526123047 C 0 25.24530029296875 25.24530792236328 -7.62939453125e-06 56.386962890625 -7.62939453125e-06 Z" stroke="none" fill="#050087"/>
    </g>
  </g>
</svg>
