<svg xmlns="http://www.w3.org/2000/svg" width="96.447" height="92.92" viewBox="0 0 96.447 92.92">
  <g id="Group_21" data-name="Group 21" transform="translate(-36 6)">
    <path id="Path_202" data-name="Path 202" d="M75.362,94.229a4.305,4.305,0,0,1-1.959-.471L48.223,80.913,23.044,93.758a4.311,4.311,0,0,1-6.22-4.495l4.332-28.19L1.239,40.844a4.311,4.311,0,0,1,2.378-7.279L31.48,29.018l12.9-25.352a4.311,4.311,0,0,1,7.684,0l12.9,25.352L92.83,33.565a4.311,4.311,0,0,1,2.378,7.279L75.292,61.074l4.331,28.19a4.311,4.311,0,0,1-4.262,4.966Z" transform="translate(36 -7.31)" fill="#fff"/>
  </g>
</svg>
