<svg xmlns="http://www.w3.org/2000/svg" width="113.153" height="113.108" viewBox="0 0 113.153 113.108">
  <g id="donut" transform="translate(1.029 1.004)">
    <path id="Path_1" data-name="Path 1" d="M130.315,366.891l-2.758,3.218a5.747,5.747,0,0,1-8.735,0l-2.758-3.218a5.747,5.747,0,0,0-8.735,0l-2.758,3.218a5.747,5.747,0,0,1-8.735,0l-2.758-3.218a5.747,5.747,0,0,0-8.735,0l-2.758,3.218a5.747,5.747,0,0,1-8.735,0l-2.758-3.218a5.747,5.747,0,0,0-8.735,0l-2.64,3.1a55.522,55.522,0,0,0,82.975,0l-2.64-3.1a5.747,5.747,0,0,0-8.735,0Zm0,0" transform="translate(-44.655 -277.51)" fill="#a97c50" stroke="#fff" stroke-width="2"/>
    <path id="Path_2" data-name="Path 2" d="M55.545,0A55.552,55.552,0,0,0,14.053,92.483l2.644-3.1a5.747,5.747,0,0,1,8.735,0L28.191,92.6a5.747,5.747,0,0,0,8.735,0l2.758-3.218a5.747,5.747,0,0,1,8.735,0L51.178,92.6a5.747,5.747,0,0,0,8.735,0l2.758-3.218a5.747,5.747,0,0,1,8.735,0L74.165,92.6a5.747,5.747,0,0,0,8.735,0l2.758-3.218a5.747,5.747,0,0,1,8.735,0l2.643,3.1A55.551,55.551,0,0,0,55.545,0Zm0,80.454a24.9,24.9,0,1,1,24.9-24.9,24.9,24.9,0,0,1-24.9,24.9Zm0,0" transform="translate(0.002)" fill="#f072ae" stroke="#fff" stroke-width="2"/>
    <path id="Path_3" data-name="Path 3" d="M103.061,393.893c-.958.058-1.916.077-2.873.077A55.435,55.435,0,0,1,58.7,375.35l2.644-3.1a2.4,2.4,0,0,1,.306-.325c.881,1.187,1.82,2.318,2.8,3.428a55.446,55.446,0,0,0,38.618,18.543Zm0,0" transform="translate(-44.641 -282.867)" fill="#7f5d3c" stroke="#fff" stroke-width="2"/>
    <path id="Path_4" data-name="Path 4" d="M58.4.077C57.459.019,56.5,0,55.544,0A55.552,55.552,0,0,0,14.052,92.483l2.644-3.1A2.4,2.4,0,0,1,17,89.055,55.527,55.527,0,0,1,58.4.077Zm0,0" transform="translate(0.003 0)" fill="#d26498" stroke="#fff" stroke-width="2"/>
    <g id="Group_2" data-name="Group 2" transform="translate(11.489 9.578)">
      <path id="Path_5" data-name="Path 5" d="M223.639,43.831A3.831,3.831,0,1,1,219.808,40,3.831,3.831,0,0,1,223.639,43.831Zm0,0" transform="translate(-175.75 -40)" fill="#f1f2f2" stroke="#fff" stroke-width="2"/>
      <path id="Path_6" data-name="Path 6" d="M55.639,179.831A3.831,3.831,0,1,1,51.808,176,3.831,3.831,0,0,1,55.639,179.831Zm0,0" transform="translate(-47.977 -143.435)" fill="#f1f2f2" stroke="#fff" stroke-width="2"/>
      <path id="Path_7" data-name="Path 7" d="M399.639,251.831A3.831,3.831,0,1,1,395.808,248,3.831,3.831,0,0,1,399.639,251.831Zm0,0" transform="translate(-309.607 -198.195)" fill="#f1f2f2" stroke="#fff" stroke-width="2"/>
    </g>
    <path id="Path_8" data-name="Path 8" d="M99.808,97.916A1.916,1.916,0,1,1,97.893,96,1.916,1.916,0,0,1,99.808,97.916Zm0,0" transform="translate(-72.995 -73.013)" fill="#ffcd00" stroke="#fff" stroke-width="2"/>
    <path id="Path_9" data-name="Path 9" d="M371.808,161.916A1.916,1.916,0,1,1,369.893,160,1.916,1.916,0,0,1,371.808,161.916Zm0,0" transform="translate(-279.865 -121.689)" fill="#ffcd00" stroke="#fff" stroke-width="2"/>
    <path id="Path_10" data-name="Path 10" d="M123.808,321.916A1.916,1.916,0,1,1,121.893,320,1.916,1.916,0,0,1,123.808,321.916Zm0,0" transform="translate(-91.248 -243.377)" fill="#ffcd00" stroke="#fff" stroke-width="2"/>
    <path id="Path_11" data-name="Path 11" d="M304.534,67.351a1.942,1.942,0,0,0,2.72,0,2.206,2.206,0,0,0,.4-.632,1.8,1.8,0,0,0,0-1.455,2.207,2.207,0,0,0-.4-.632,2.005,2.005,0,0,0-2.72,0,2.209,2.209,0,0,0-.4.632,1.807,1.807,0,0,0,0,1.455A2.208,2.208,0,0,0,304.534,67.351Zm0,0" transform="translate(-231.191 -48.751)" fill="#ff9811" stroke="#fff" stroke-width="2"/>
    <path id="Path_12" data-name="Path 12" d="M153.893,43.834a1.979,1.979,0,0,0,1.36-.556,1.942,1.942,0,0,0,0-2.72l-.287-.23a1.47,1.47,0,0,0-.345-.172,1.167,1.167,0,0,0-.366-.115,1.913,1.913,0,0,0-1.724.517,1.979,1.979,0,0,0-.4.632,1.927,1.927,0,0,0-.152.728,2.005,2.005,0,0,0,.556,1.36,1.97,1.97,0,0,0,1.36.556Zm0,0" transform="translate(-115.586 -30.425)" fill="#ff9811" stroke="#fff" stroke-width="2"/>
    <path id="Path_13" data-name="Path 13" d="M113.165,144.153a1.978,1.978,0,0,0-.632.4,1.942,1.942,0,0,0,0,2.72,1.779,1.779,0,0,0,.632.4,1.908,1.908,0,0,0,.728.153,1.979,1.979,0,0,0,1.36-.556,1.942,1.942,0,0,0,0-2.72l-.287-.23a1.47,1.47,0,0,0-.345-.172,1.166,1.166,0,0,0-.366-.115A1.773,1.773,0,0,0,113.165,144.153Zm0,0" transform="translate(-85.164 -109.519)" fill="#57a4ff" stroke="#fff" stroke-width="2"/>
    <path id="Path_14" data-name="Path 14" d="M32.531,243.305a1.916,1.916,0,0,0,3.276-1.36,1.627,1.627,0,0,0-.153-.728,1.726,1.726,0,0,0-1.034-1.035,1.947,1.947,0,0,0-2.088.4,1.981,1.981,0,0,0-.4,2.088,1.979,1.979,0,0,0,.4.632Zm0,0" transform="translate(-24.318 -182.563)" fill="#57a4ff" stroke="#fff" stroke-width="2"/>
    <path id="Path_15" data-name="Path 15" d="M75.233,320.5a1.878,1.878,0,0,0-3.1.632,1.8,1.8,0,0,0,0,1.455,1.721,1.721,0,0,0,1.034,1.034,1.914,1.914,0,0,0,2.069-.4,1.949,1.949,0,0,0,.574-1.36A1.984,1.984,0,0,0,75.233,320.5Zm0,0" transform="translate(-54.741 -243.322)" fill="#f1f2f2" stroke="#fff" stroke-width="2"/>
    <path id="Path_16" data-name="Path 16" d="M328.532,344.555a1.942,1.942,0,0,0,0,2.72,1.97,1.97,0,0,0,1.36.556,1.916,1.916,0,1,0-1.36-3.276Zm0,0" transform="translate(-249.443 -261.63)" fill="#f1f2f2" stroke="#fff" stroke-width="2"/>
    <path id="Path_17" data-name="Path 17" d="M353.891,283.907a2.016,2.016,0,0,0,1.36-.556,2.209,2.209,0,0,0,.4-.632,1.8,1.8,0,0,0,0-1.455,2.208,2.208,0,0,0-.4-.632,2,2,0,0,0-2.72,0,2.21,2.21,0,0,0-.4.632,1.6,1.6,0,0,0-.153.728,1.9,1.9,0,0,0,1.916,1.916Zm0,0" transform="translate(-267.695 -213.031)" fill="#ff9811" stroke="#fff" stroke-width="2"/>
    <path id="Path_18" data-name="Path 18" d="M416.531,203.249a3.2,3.2,0,0,0,.285.23,1.5,1.5,0,0,0,.347.172,1.213,1.213,0,0,0,.344.115,2.789,2.789,0,0,0,.383.038,1.9,1.9,0,0,0,1.762-2.643,1.853,1.853,0,0,0-2.146-1.15,1.212,1.212,0,0,0-.344.115,1.5,1.5,0,0,0-.347.172l-.285.23a1.978,1.978,0,0,0-.4.632,1.6,1.6,0,0,0-.153.728A2.006,2.006,0,0,0,416.531,203.249Zm0,0" transform="translate(-316.37 -152.084)" fill="#57a4ff" stroke="#fff" stroke-width="2"/>
    <path id="Path_19" data-name="Path 19" d="M320.532,123.352a1.942,1.942,0,0,0,2.72,0c.077-.1.153-.192.23-.307a2,2,0,0,0,.285-.689,2.063,2.063,0,0,0,.04-.364,1.627,1.627,0,0,0-.153-.728,2.21,2.21,0,0,0-.4-.632,2.005,2.005,0,0,0-2.72,0,2.209,2.209,0,0,0-.4.632,1.908,1.908,0,0,0-.153.728A2,2,0,0,0,320.532,123.352Zm0,0" transform="translate(-243.359 -91.342)" fill="#f1f2f2" stroke="#fff" stroke-width="2"/>
    <path id="Path_20" data-name="Path 20" d="M354.528,85.26a1.916,1.916,0,0,0,2.709-2.709l-1.916-1.916a1.916,1.916,0,0,0-2.709,2.709Zm0,0" transform="translate(-267.771 -60.919)" fill="#ffcd00" stroke="#fff" stroke-width="2"/>
    <path id="Path_21" data-name="Path 21" d="M160.54,80.564a1.917,1.917,0,0,0,0,2.709l1.916,1.916a1.916,1.916,0,0,0,2.709-2.709l-1.916-1.916A1.917,1.917,0,0,0,160.54,80.564Zm0,0" transform="translate(-121.672 -60.847)" fill="#7ed63e" stroke="#fff" stroke-width="2"/>
    <path id="Path_22" data-name="Path 22" d="M256.54,93.26a1.917,1.917,0,0,0,2.709,0l1.916-1.916a1.916,1.916,0,0,0-2.709-2.709l-1.916,1.916A1.917,1.917,0,0,0,256.54,93.26Zm0,0" transform="translate(-194.685 -67.003)" fill="#ff3051" stroke="#fff" stroke-width="2"/>
    <path id="Path_23" data-name="Path 23" d="M82.379,248.636l-1.916,1.916a1.916,1.916,0,1,0,2.709,2.709l1.916-1.916a1.916,1.916,0,0,0-2.709-2.709Zm0,0" transform="translate(-60.751 -188.692)" fill="#7ed63e" stroke="#fff" stroke-width="2"/>
    <path id="Path_24" data-name="Path 24" d="M379.321,312.636a1.916,1.916,0,0,0-2.709,2.709l1.916,1.916a1.916,1.916,0,0,0,2.709-2.709Zm0,0" transform="translate(-286.024 -237.368)" fill="#ff3051" stroke="#fff" stroke-width="2"/>
    <path id="Path_25" data-name="Path 25" d="M365.088,208.564a1.917,1.917,0,0,0-2.709,0l-1.916,1.916a1.916,1.916,0,1,0,2.709,2.709l1.916-1.916A1.915,1.915,0,0,0,365.088,208.564Zm0,0" transform="translate(-273.706 -158.197)" fill="#ffcd00" stroke="#fff" stroke-width="2"/>
    <path id="Path_26" data-name="Path 26" d="M401.893,135.662a1.916,1.916,0,0,0,1.916-1.916v-3.831a1.916,1.916,0,1,0-3.831,0v3.831A1.916,1.916,0,0,0,401.893,135.662Zm0,0" transform="translate(-304.203 -97.351)" fill="#7ed63e" stroke="#fff" stroke-width="2"/>
    <path id="Path_27" data-name="Path 27" d="M37.088,282.4l-1.916-1.916a1.916,1.916,0,1,0-2.709,2.709l1.916,1.916a1.916,1.916,0,0,0,2.709-2.709Zm0,0" transform="translate(-24.245 -212.881)" fill="#ffcd00" stroke="#fff" stroke-width="2"/>
    <path id="Path_28" data-name="Path 28" d="M49.893,125.822a1.916,1.916,0,0,0,1.354-.561l1.916-1.916a1.916,1.916,0,0,0-2.709-2.709l-1.916,1.916a1.915,1.915,0,0,0,1.354,3.27Zm0,0" transform="translate(-36.489 -91.341)" fill="#ff3051" stroke="#fff" stroke-width="2"/>
  </g>
</svg>
