<svg id="donut" xmlns="http://www.w3.org/2000/svg" width="362.234" height="362.265" viewBox="0 0 362.234 362.265">
  <path id="Path_1" data-name="Path 1" d="M292.175,371.439l-8.994,10.491a18.738,18.738,0,0,1-28.482,0l-8.994-10.491a18.737,18.737,0,0,0-28.482,0L208.23,381.93a18.738,18.738,0,0,1-28.482,0l-8.994-10.491a18.737,18.737,0,0,0-28.482,0l-8.994,10.491a18.738,18.738,0,0,1-28.482,0L95.8,371.439a18.737,18.737,0,0,0-28.482,0l-8.606,10.1a181.037,181.037,0,0,0,270.549,0l-8.606-10.1a18.737,18.737,0,0,0-28.482,0Zm0,0" transform="translate(-12.871 -80.003)" fill="#a97c50"/>
  <path id="Path_2" data-name="Path 2" d="M181.114,0A181.133,181.133,0,0,0,45.826,301.552l8.622-10.116a18.738,18.738,0,0,1,28.482,0l8.994,10.491a18.738,18.738,0,0,0,28.482,0l8.994-10.491a18.738,18.738,0,0,1,28.482,0l8.994,10.491a18.738,18.738,0,0,0,28.482,0l8.994-10.491a18.738,18.738,0,0,1,28.482,0l8.994,10.491a18.738,18.738,0,0,0,28.482,0l8.994-10.491a18.738,18.738,0,0,1,28.482,0l8.619,10.116A181.131,181.131,0,0,0,181.114,0Zm0,262.329a81.2,81.2,0,1,1,81.2-81.2,81.2,81.2,0,0,1-81.2,81.2Zm0,0" transform="translate(0.003)" fill="#f072ae"/>
  <path id="Path_3" data-name="Path 3" d="M203.353,443.561c-3.123.189-6.246.25-9.369.25A180.753,180.753,0,0,1,58.7,383.1l8.622-10.116a7.824,7.824,0,0,1,1-1.061c2.873,3.87,5.935,7.557,9.119,11.177a180.787,180.787,0,0,0,125.919,60.462Zm0,0" transform="translate(-12.867 -81.547)" fill="#7f5d3c"/>
  <path id="Path_4" data-name="Path 4" d="M190.421.25C187.359.061,184.236,0,181.113,0A181.133,181.133,0,0,0,45.825,301.552l8.622-10.116a7.829,7.829,0,0,1,1-1.061A181.052,181.052,0,0,1,190.421.25Zm0,0" transform="translate(0.003)" fill="#d26498"/>
  <g id="Group_2" data-name="Group 2" transform="translate(37.46 31.23)">
    <path id="Path_5" data-name="Path 5" d="M240.961,52.492A12.492,12.492,0,1,1,228.469,40,12.492,12.492,0,0,1,240.961,52.492Zm0,0" transform="translate(-84.812 -40)" fill="#f1f2f2"/>
    <path id="Path_6" data-name="Path 6" d="M72.96,188.492A12.492,12.492,0,1,1,60.468,176,12.492,12.492,0,0,1,72.96,188.492Zm0,0" transform="translate(-47.977 -69.819)" fill="#f1f2f2"/>
    <path id="Path_7" data-name="Path 7" d="M416.961,260.492A12.492,12.492,0,1,1,404.469,248,12.492,12.492,0,0,1,416.961,260.492Zm0,0" transform="translate(-123.401 -85.606)" fill="#f1f2f2"/>
  </g>
  <path id="Path_8" data-name="Path 8" d="M108.469,102.246A6.246,6.246,0,1,1,102.223,96,6.246,6.246,0,0,1,108.469,102.246Zm0,0" transform="translate(-21.041 -21.049)" fill="#ffcd00"/>
  <path id="Path_9" data-name="Path 9" d="M380.469,166.246A6.246,6.246,0,1,1,374.223,160,6.246,6.246,0,0,1,380.469,166.246Zm0,0" transform="translate(-80.68 -35.081)" fill="#ffcd00"/>
  <path id="Path_10" data-name="Path 10" d="M132.469,326.246A6.246,6.246,0,1,1,126.223,320,6.246,6.246,0,0,1,132.469,326.246Zm0,0" transform="translate(-26.304 -70.163)" fill="#ffcd00"/>
  <path id="Path_11" data-name="Path 11" d="M305.789,74.7a6.333,6.333,0,0,0,8.869,0,7.2,7.2,0,0,0,1.311-2.062,5.87,5.87,0,0,0,0-4.745,7.2,7.2,0,0,0-1.311-2.062,6.538,6.538,0,0,0-8.869,0,7.2,7.2,0,0,0-1.311,2.062,5.894,5.894,0,0,0,0,4.745A7.2,7.2,0,0,0,305.789,74.7Zm0,0" transform="translate(-66.647 -14.054)" fill="#ff9811"/>
  <path id="Path_12" data-name="Path 12" d="M158.223,52.493a6.451,6.451,0,0,0,4.434-1.812,6.333,6.333,0,0,0,0-8.869l-.936-.75A4.791,4.791,0,0,0,160.6,40.5a3.8,3.8,0,0,0-1.192-.375,6.239,6.239,0,0,0-5.621,1.687,6.451,6.451,0,0,0-1.311,2.062,6.283,6.283,0,0,0-.494,2.373,6.538,6.538,0,0,0,1.812,4.434,6.424,6.424,0,0,0,4.434,1.812Zm0,0" transform="translate(-33.32 -8.771)" fill="#ff9811"/>
  <path id="Path_13" data-name="Path 13" d="M115.85,144.5a6.451,6.451,0,0,0-2.062,1.311,6.333,6.333,0,0,0,0,8.869,5.8,5.8,0,0,0,2.062,1.311,6.219,6.219,0,0,0,2.373.5,6.451,6.451,0,0,0,4.434-1.812,6.333,6.333,0,0,0,0-8.869l-.936-.75a4.794,4.794,0,0,0-1.125-.561,3.8,3.8,0,0,0-1.192-.375A5.782,5.782,0,0,0,115.85,144.5Zm0,0" transform="translate(-24.55 -31.573)" fill="#57a4ff"/>
  <path id="Path_14" data-name="Path 14" d="M33.788,250.689a6.247,6.247,0,0,0,10.68-4.434,5.3,5.3,0,0,0-.5-2.373,5.627,5.627,0,0,0-3.373-3.373,6.35,6.35,0,0,0-6.807,1.311,6.458,6.458,0,0,0-1.311,6.807,6.45,6.45,0,0,0,1.311,2.062Zm0,0" transform="translate(-7.009 -52.63)" fill="#57a4ff"/>
  <path id="Path_15" data-name="Path 15" d="M82.6,321.8a6.123,6.123,0,0,0-10.119,2.062,5.87,5.87,0,0,0,0,4.745,5.611,5.611,0,0,0,3.373,3.373,6.241,6.241,0,0,0,6.746-1.311,6.354,6.354,0,0,0,1.873-4.434A6.47,6.47,0,0,0,82.6,321.8Zm0,0" transform="translate(-15.779 -70.147)" fill="#f1f2f2"/>
  <path id="Path_16" data-name="Path 16" d="M329.788,345.811a6.333,6.333,0,0,0,0,8.869,6.423,6.423,0,0,0,4.434,1.812,6.246,6.246,0,1,0-4.434-10.68Zm0,0" transform="translate(-71.909 -75.425)" fill="#f1f2f2"/>
  <path id="Path_17" data-name="Path 17" d="M358.222,292.514a6.572,6.572,0,0,0,4.434-1.812,7.2,7.2,0,0,0,1.311-2.062,5.87,5.87,0,0,0,0-4.745,7.2,7.2,0,0,0-1.311-2.062,6.538,6.538,0,0,0-8.869,0,7.2,7.2,0,0,0-1.311,2.062,5.224,5.224,0,0,0-.5,2.373,6.186,6.186,0,0,0,6.246,6.246Zm0,0" transform="translate(-77.171 -61.414)" fill="#ff9811"/>
  <path id="Path_18" data-name="Path 18" d="M417.788,210.673a10.414,10.414,0,0,0,.93.75,4.894,4.894,0,0,0,1.131.561,3.957,3.957,0,0,0,1.122.375,9.092,9.092,0,0,0,1.25.125,6.182,6.182,0,0,0,5.746-8.619,6.042,6.042,0,0,0-7-3.748,3.955,3.955,0,0,0-1.122.375,4.891,4.891,0,0,0-1.131.561l-.93.75a6.449,6.449,0,0,0-1.311,2.062,5.224,5.224,0,0,0-.5,2.373A6.538,6.538,0,0,0,417.788,210.673Zm0,0" transform="translate(-91.204 -43.844)" fill="#57a4ff"/>
  <path id="Path_19" data-name="Path 19" d="M321.788,130.7a6.333,6.333,0,0,0,8.869,0c.25-.311.5-.625.75-1a6.531,6.531,0,0,0,.93-2.248,6.732,6.732,0,0,0,.131-1.186,5.3,5.3,0,0,0-.5-2.373,7.2,7.2,0,0,0-1.311-2.062,6.538,6.538,0,0,0-8.869,0,7.2,7.2,0,0,0-1.311,2.062,6.219,6.219,0,0,0-.5,2.373A6.538,6.538,0,0,0,321.788,130.7Zm0,0" transform="translate(-70.155 -26.333)" fill="#f1f2f2"/>
  <path id="Path_20" data-name="Path 20" d="M360.074,96.929a6.246,6.246,0,0,0,8.832-8.832l-6.246-6.246a6.246,6.246,0,0,0-8.832,8.832Zm0,0" transform="translate(-77.193 -17.562)" fill="#ffcd00"/>
  <path id="Path_21" data-name="Path 21" d="M161.807,81.831a6.249,6.249,0,0,0,0,8.832l6.246,6.246a6.246,6.246,0,0,0,8.832-8.832l-6.246-6.246a6.249,6.249,0,0,0-8.832,0Zm0,0" transform="translate(-35.074 -17.541)" fill="#7ed63e"/>
  <path id="Path_22" data-name="Path 22" d="M257.807,104.929a6.249,6.249,0,0,0,8.832,0l6.246-6.246a6.246,6.246,0,0,0-8.832-8.832L257.807,96.1a6.249,6.249,0,0,0,0,8.832Zm0,0" transform="translate(-56.123 -19.316)" fill="#ff3051"/>
  <path id="Path_23" data-name="Path 23" d="M88.031,249.852,81.785,256.1a6.246,6.246,0,1,0,8.832,8.832l6.246-6.246a6.246,6.246,0,0,0-8.832-8.832Zm0,0" transform="translate(-17.512 -54.398)" fill="#7ed63e"/>
  <path id="Path_24" data-name="Path 24" d="M386.66,313.852a6.246,6.246,0,0,0-8.832,8.832l6.246,6.246a6.246,6.246,0,0,0,8.832-8.832Zm0,0" transform="translate(-82.455 -68.43)" fill="#ff3051"/>
  <path id="Path_25" data-name="Path 25" d="M376.863,209.831a6.249,6.249,0,0,0-8.832,0l-6.246,6.246a6.246,6.246,0,1,0,8.832,8.832l6.246-6.246A6.244,6.244,0,0,0,376.863,209.831Zm0,0" transform="translate(-78.904 -45.606)" fill="#ffcd00"/>
  <path id="Path_26" data-name="Path 26" d="M406.223,152.984a6.246,6.246,0,0,0,6.246-6.246V134.246a6.246,6.246,0,0,0-12.492,0v12.492A6.246,6.246,0,0,0,406.223,152.984Zm0,0" transform="translate(-87.696 -28.065)" fill="#7ed63e"/>
  <path id="Path_27" data-name="Path 27" d="M48.863,288.055l-6.246-6.246a6.246,6.246,0,1,0-8.832,8.832l6.246,6.246a6.246,6.246,0,0,0,8.832-8.832Zm0,0" transform="translate(-6.987 -61.371)" fill="#ffcd00"/>
  <path id="Path_28" data-name="Path 28" d="M54.223,138.759a6.247,6.247,0,0,0,4.416-1.83l6.246-6.246a6.246,6.246,0,0,0-8.832-8.832L49.807,128.1a6.245,6.245,0,0,0,4.416,10.662Zm0,0" transform="translate(-10.517 -26.333)" fill="#ff3051"/>
</svg>
